<svg width="23" height="23" viewBox="0 0 23 23" fill="none" xmlns="http://www.w3.org/2000/svg">
<g id="icn bxs-star">
<path id="Vector" d="M21.0969 8.41927C21.0392 8.24946 20.9331 8.10025 20.7916 7.99006C20.6501 7.87987 20.4795 7.81353 20.3007 7.79922L15.0716 7.38371L12.8087 2.3747C12.7367 2.21337 12.6195 2.07634 12.4712 1.98016C12.323 1.88397 12.1501 1.83274 11.9734 1.83264C11.7968 1.83254 11.6238 1.88359 11.4755 1.97961C11.3272 2.07563 11.2098 2.21253 11.1375 2.37378L8.87473 7.38371L3.64558 7.79922C3.46989 7.81314 3.30193 7.87738 3.16179 7.98425C3.02165 8.09113 2.91527 8.23612 2.85537 8.40187C2.79548 8.56762 2.7846 8.74712 2.82405 8.91889C2.8635 9.09066 2.9516 9.24743 3.07781 9.37044L6.94212 13.1375L5.57544 19.0555C5.53394 19.2347 5.54724 19.4221 5.61361 19.5936C5.67999 19.7651 5.79637 19.9127 5.94765 20.0172C6.09894 20.1217 6.27815 20.1783 6.46202 20.1797C6.6459 20.1811 6.82594 20.1272 6.97881 20.025L11.9731 16.6955L16.9675 20.025C17.1237 20.1288 17.308 20.1822 17.4955 20.1781C17.683 20.1739 17.8647 20.1125 18.0162 20.002C18.1678 19.8916 18.2819 19.7373 18.3431 19.5601C18.4044 19.3828 18.4099 19.1911 18.3589 19.0106L16.6813 13.1403L20.8419 9.39612C21.1143 9.15031 21.2143 8.7669 21.0969 8.41927Z" fill="#F3CD03"/>
</g>
</svg>
