<svg width="17" height="16" viewBox="0 0 17 16" fill="none" xmlns="http://www.w3.org/2000/svg">
<g id="icon carbon-chart-area-smooth">
<path id="Vector" d="M15.5 3.307L14.8425 3.5255C13.9214 3.81404 12.9649 3.97373 12 4C11.133 4 10.339 3.5465 9.498 3.066C8.581 2.542 7.633 2 6.5 2C5.0615 2 3.4575 3.103 2.5 3.886V1H1.5V14C1.50026 14.2651 1.60571 14.5193 1.79319 14.7068C1.98066 14.8943 2.23486 14.9997 2.5 15H15.5V3.307ZM2.5 10.147C3.437 8.688 5.28 6.5 6.5 6.5C7.319 6.5 7.98 7.051 8.68 7.6345C9.4485 8.2745 10.319 9 11.5 9C12.618 8.94638 13.6809 8.49837 14.5 7.7355V10.2135C13.5781 10.7138 12.5488 10.9837 11.5 11C10.6978 10.9786 9.90531 10.8181 9.158 10.5255C8.30921 10.1974 7.40978 10.0196 6.5 10C5.0365 10 3.466 11.4795 2.5 12.579V10.147ZM6.5 3C7.367 3 8.161 3.4535 9.002 3.934C9.919 4.458 10.867 5 12 5C12.8438 4.98583 13.6829 4.87204 14.5 4.661V6.3215C14.1585 6.723 12.958 8 11.5 8C10.681 8 10.02 7.449 9.32 6.8655C8.5515 6.2255 7.681 5.5 6.5 5.5C5.032 5.5 3.4685 7.17 2.5 8.4225V5.212C3.273 4.483 5.1295 3 6.5 3ZM2.6245 14C3.431 12.9545 5.205 11 6.5 11C7.30225 11.0214 8.09469 11.1819 8.842 11.4745C9.69079 11.8026 10.5902 11.9804 11.5 12C12.536 11.9901 13.5582 11.7618 14.5 11.33V14H2.6245Z" fill="#E77C40"/>
</g>
</svg>
